{"title":"Cars 2 (2011) DVDRip XviD PT-PT SUB HD_DUARTEPER","uid":6797403,"size":1621533003,"categoryP":"video","categoryS":"movies","magnet":"?xt=urn:btih:74b7c967e490ebe36e55c6bdb8fdea663cf2fbd7&amp;dn=Cars+2+%282011%29+DVDRip+XviD+PT-PT+SUB+HD_DUARTEPER&amp;tr=udp%3A%2F%2Ftracker.openbittorrent.com%3A80&amp;tr=udp%3A%2F%2Fopen.demonii.com%3A1337&amp;tr=udp%3A%2F%2Ftracker.coppersurfer.tk%3A6969&amp;tr=udp%3A%2F%2Fexodus.desync.com%3A6969","seeders":2,"leechers":0,"uploader":"duarteto","files":-1,"time":1320511005,"description":"Cars 2 (2011) DVDRip\nFormat                           : AVI\nFormat/Info                      : Audio Video Interleave\nFormat profile                   : OpenDML\nFile size                        : 1.51 GiB\nDuration                         : 1h 47mn\nOverall bit rate                 : 2 020 Kbps\nWriting application              : VirtualDubMod 1.5.10.2 (build 2542/release)\nWriting library                  : VirtualDubMod build 2542/release\n\nVideo\nID                               : 0\nFormat                           : MPEG-4 Visual\nFormat profile                   : AdvancedSimple@L5\nFormat settings, BVOP            : Yes\nFormat settings, QPel            : No\nFormat settings, GMC             : No warppoints\nFormat settings, Matrix          : Custom\nCodec ID                         : XVID\nCodec ID/Hint                    : XviD\nDuration                         : 1h 47mn\nBit rate                         : 1 631 Kbps\nWidth                            : 720 pixels\nHeight                           : 304 pixels\nDisplay aspect ratio             : 2.35:1\nFrame rate                       : 23.976 fps\nResolution                       : 24 bits\nColorimetry                      : 4:2:0\nScan type                        : Progressive\nBits/(Pixel*Frame)               : 0.311\nStream size                      : 1.22 GiB (81%)\nWriting library                  : XviD 58\n\nAudio\nID                               : 1\nFormat                           : AC-3\nFormat/Info                      : Audio Coding 3\nCodec ID                         : 2000\nDuration                         : 1h 46mn\nBit rate mode                    : Constant\nBit rate                         : 384 Kbps\nChannel(s)                       : 6 channels\nChannel positions                : Front: L C R, Surround: L R, LFE\nSampling rate                    : 48.0 KHz\nStream size                      : 293 MiB (19%)\nAlignment                        : Aligned on interleaves\nInterleave, duration             : 64 ms (1.54 video frames)\nInterleave, preload duration     : 192 ms","torrent":{"xt":"urn:btih:74b7c967e490ebe36e55c6bdb8fdea663cf2fbd7","amp;dn":"Cars+2+%282011%29+DVDRip+XviD+PT-PT+SUB+HD_DUARTEPER","amp;tr":["udp%3A%2F%2Ftracker.openbittorrent.com%3A80","udp%3A%2F%2Fopen.demonii.com%3A1337","udp%3A%2F%2Ftracker.coppersurfer.tk%3A6969","udp%3A%2F%2Fexodus.desync.com%3A6969"],"infoHash":"74b7c967e490ebe36e55c6bdb8fdea663cf2fbd7","infoHashBuffer":{"type":"Buffer","data":[116,183,201,103,228,144,235,227,110,85,198,189,184,253,234,102,60,242,251,215]},"announce":[],"urlList":[]}}